<svg width="120" height="120" viewBox="0 0 120 120" fill="none" xmlns="http://www.w3.org/2000/svg">
<rect width="120" height="120" rx="4" fill="white"/>
<path d="M38.0356 83L25.7956 36.352H36.5396L43.3396 64.164C43.4756 64.572 43.6116 65.184 43.7476 66C43.8836 66.7707 44.0196 67.5867 44.1556 68.448C44.2916 69.3093 44.4049 70.08 44.4956 70.76H44.8356C44.9263 70.2613 44.9943 69.6947 45.0396 69.06C45.1303 68.4253 45.2209 67.8133 45.3116 67.224C45.4476 66.5893 45.5609 66 45.6516 65.456C45.7876 64.912 45.8783 64.4813 45.9236 64.164L52.2476 36.352H64.3516L70.8116 64.164C70.9476 64.6173 71.0836 65.2293 71.2196 66C71.3556 66.7707 71.4916 67.5867 71.6276 68.448C71.7636 69.3093 71.8769 70.08 71.9676 70.76H72.3076C72.3983 70.2613 72.4889 69.7173 72.5796 69.128C72.7156 68.5387 72.8289 67.9493 72.9196 67.36C73.0556 66.7253 73.1916 66.136 73.3276 65.592C73.4636 65.048 73.5769 64.572 73.6676 64.164L80.3996 36.352H90.1236L77.8156 83H66.2556L59.3876 54.304C59.2516 53.6693 59.0929 52.944 58.9116 52.128C58.7756 51.2667 58.6396 50.428 58.5036 49.612C58.3676 48.796 58.2543 48.0707 58.1636 47.436H57.8916C57.8009 48.0707 57.6876 48.8187 57.5516 49.68C57.4609 50.5413 57.3249 51.38 57.1436 52.196C57.0076 53.012 56.8716 53.7147 56.7356 54.304L49.9356 83H38.0356ZM86.4728 83V73.276H96.3328V83H86.4728Z" fill="#262626"/>
</svg>
